  <svg
    width="17"
    height="16"
    viewBox="0 0 17 16"
    xmlns="http://www.w3.org/2000/svg"
  >
    <g clip-path="url(#clip0_548_3666)">
      <path
        d="M9.09084 0.82996L10.8323 4.48653C10.9534 4.74085 11.1875 4.91707 11.4584 4.95779L15.3525 5.54419C16.0346 5.64698 16.3068 6.5154 15.8134 7.01369L12.9956 9.85991C12.7998 10.0578 12.7102 10.3432 12.7566 10.6225L13.4217 14.6416C13.5383 15.3454 12.8252 15.8821 12.2152 15.55L8.73238 13.6527C8.49018 13.5208 8.20064 13.5208 7.95845 13.6527L4.47561 15.55C3.86561 15.8824 3.15256 15.3454 3.26914 14.6416L3.93421 10.6225C3.98059 10.3432 3.89106 10.0578 3.69524 9.85991L0.877471 7.01369C0.384063 6.51507 0.65621 5.64665 1.33835 5.54419L5.23247 4.95779C5.50333 4.91707 5.73747 4.74085 5.85857 4.48653L7.59999 0.82996C7.90466 0.189493 8.78584 0.189493 9.09084 0.82996Z"
      />
    </g>
    <defs>
      <clipPath id="clip0_548_3666">
        <rect
          width="15.4399"
          height="16"
          fill="white"
          transform="translate(0.625)"
        />
      </clipPath>
    </defs>
  </svg>