<svg width="40" height="40" viewBox="0 0 40 40"  xmlns="http://www.w3.org/2000/svg">
<path d="M20.6667 3.33325C19.1031 3.33317 17.5962 3.91918 16.4435 4.97563C15.2908 6.03208 14.5759 7.48224 14.44 9.03992C12.2944 10.1729 10.4986 11.8699 9.24632 13.9481C7.99399 16.0263 7.33257 18.4069 7.33334 20.8333V23.3333H34V20.8333C34.0008 18.4069 33.3394 16.0263 32.087 13.9481C30.8347 11.8699 29.039 10.1729 26.8933 9.03992C26.7574 7.48224 26.0426 6.03208 24.8898 4.97563C23.7371 3.91918 22.2303 3.33317 20.6667 3.33325ZM34 26.1899H16.5V28.7499C16.5 29.0814 16.3683 29.3994 16.1339 29.6338C15.8995 29.8682 15.5815 29.9999 15.25 29.9999C14.9185 29.9999 14.6005 29.8682 14.3661 29.6338C14.1317 29.3994 14 29.0814 14 28.7499V26.1899H7.33334V31.2499C7.33334 31.9612 7.47345 32.6656 7.74566 33.3228C8.01788 33.98 8.41686 34.5771 8.91985 35.0801C9.42283 35.5831 10.02 35.9821 10.6771 36.2543C11.3343 36.5265 12.0387 36.6666 12.75 36.6666H28.5833C29.2947 36.6666 29.999 36.5265 30.6562 36.2543C31.3134 35.9821 31.9105 35.5831 32.4135 35.0801C32.9165 34.5771 33.3155 33.98 33.5877 33.3228C33.8599 32.6656 34 31.9612 34 31.2499V26.1899ZM20.6667 7.49992C19.5033 7.49992 18.3767 7.64992 17.3 7.92825C17.6089 7.2987 18.0881 6.76837 18.6832 6.39746C19.2783 6.02655 19.9654 5.82993 20.6667 5.82993C21.3679 5.82993 22.0551 6.02655 22.6502 6.39746C23.2453 6.76837 23.7245 7.2987 24.0333 7.92825C22.9339 7.64288 21.8025 7.49894 20.6667 7.49992ZM14 17.3616C14 16.2932 14.4244 15.2686 15.1799 14.5131C15.9353 13.7577 16.96 13.3333 18.0283 13.3333H23.305C24.3734 13.3333 25.398 13.7577 26.1535 14.5131C26.9089 15.2686 27.3333 16.2932 27.3333 17.3616C27.3333 18.8166 26.1517 19.9999 24.695 19.9999H16.6383C15.9386 19.9999 15.2675 19.722 14.7728 19.2272C14.278 18.7324 14 18.0613 14 17.3616ZM18.0283 15.8333C17.623 15.8333 17.2343 15.9943 16.9476 16.2809C16.661 16.5675 16.5 16.9562 16.5 17.3616C16.5 17.4383 16.5617 17.4999 16.6383 17.4999H24.695C24.7317 17.4999 24.7669 17.4853 24.7928 17.4594C24.8188 17.4335 24.8333 17.3983 24.8333 17.3616C24.8333 16.9562 24.6723 16.5675 24.3857 16.2809C24.0991 15.9943 23.7104 15.8333 23.305 15.8333H18.0283Z" />
</svg>
