<svg width="50" height="50" viewBox="0 0 50 50" xmlns="http://www.w3.org/2000/svg">
<path d="M32.8125 6.25C30.011 6.25 27.4719 6.7749 25.4883 7.76367C23.5046 8.75244 21.875 10.3638 21.875 12.5V18.75C21.875 18.9514 21.9421 19.1467 21.9727 19.3359C20.52 18.9575 18.9087 18.75 17.1875 18.75C14.386 18.75 11.8469 19.2749 9.86328 20.2637C7.87964 21.2524 6.25 22.8638 6.25 25V37.5C6.25 39.6362 7.87964 41.2476 9.86328 42.2363C11.8469 43.2251 14.386 43.75 17.1875 43.75C19.989 43.75 22.5281 43.2251 24.5117 42.2363C26.4954 41.2476 28.125 39.6362 28.125 37.5V36.8652C29.5593 37.2437 31.1279 37.5 32.8125 37.5C35.614 37.5 38.1531 36.9751 40.1367 35.9863C42.1204 34.9976 43.75 33.3862 43.75 31.25V12.5C43.75 10.3638 42.1204 8.75244 40.1367 7.76367C38.1531 6.7749 35.614 6.25 32.8125 6.25ZM32.8125 9.375C35.1929 9.375 37.3108 9.8877 38.7207 10.5957C40.1306 11.3037 40.625 12.0483 40.625 12.5C40.625 12.9517 40.1306 13.6963 38.7207 14.4043C37.3108 15.1123 35.1929 15.625 32.8125 15.625C30.4321 15.625 28.3142 15.1123 26.9043 14.4043C25.4944 13.6963 25 12.9517 25 12.5C25 12.0483 25.4944 11.3037 26.9043 10.5957C28.3142 9.8877 30.4321 9.375 32.8125 9.375ZM25 16.9434C25.1648 17.0349 25.3174 17.1509 25.4883 17.2363C27.4719 18.2251 30.011 18.75 32.8125 18.75C35.614 18.75 38.1531 18.2251 40.1367 17.2363C40.3076 17.1509 40.4602 17.0349 40.625 16.9434V18.75C40.625 19.2017 40.1306 19.9463 38.7207 20.6543C37.3108 21.3623 35.1929 21.875 32.8125 21.875C30.4321 21.875 28.3142 21.3623 26.9043 20.6543C25.4944 19.9463 25 19.2017 25 18.75V16.9434ZM17.1875 21.875C19.5679 21.875 21.6858 22.3877 23.0957 23.0957C24.5056 23.8037 25 24.5483 25 25C25 25.4517 24.5056 26.1963 23.0957 26.9043C21.6858 27.6123 19.5679 28.125 17.1875 28.125C14.8071 28.125 12.6892 27.6123 11.2793 26.9043C9.86938 26.1963 9.375 25.4517 9.375 25C9.375 24.5483 9.86938 23.8037 11.2793 23.0957C12.6892 22.3877 14.8071 21.875 17.1875 21.875ZM40.625 23.1934V25C40.625 25.4517 40.1306 26.1963 38.7207 26.9043C37.3108 27.6123 35.1929 28.125 32.8125 28.125C31.0364 28.125 29.4312 27.832 28.125 27.3926V25C28.125 24.7986 28.0579 24.6033 28.0273 24.4141C29.48 24.7925 31.0913 25 32.8125 25C35.614 25 38.1531 24.4751 40.1367 23.4863C40.3076 23.4009 40.4602 23.2849 40.625 23.1934ZM9.375 29.4434C9.5398 29.5349 9.69238 29.6509 9.86328 29.7363C11.8469 30.7251 14.386 31.25 17.1875 31.25C19.989 31.25 22.5281 30.7251 24.5117 29.7363C24.6826 29.6509 24.8352 29.5349 25 29.4434V31.25C25 31.7017 24.5056 32.4463 23.0957 33.1543C21.6858 33.8623 19.5679 34.375 17.1875 34.375C14.8071 34.375 12.6892 33.8623 11.2793 33.1543C9.86938 32.4463 9.375 31.7017 9.375 31.25V29.4434ZM40.625 29.4434V31.25C40.625 31.7017 40.1306 32.4463 38.7207 33.1543C37.3108 33.8623 35.1929 34.375 32.8125 34.375C31.0364 34.375 29.4312 34.1248 28.125 33.6914V30.6641C29.5593 31.0425 31.1218 31.25 32.8125 31.25C35.614 31.25 38.1531 30.7251 40.1367 29.7363C40.3076 29.6509 40.4602 29.5349 40.625 29.4434ZM9.375 35.6934C9.5398 35.7849 9.69238 35.9009 9.86328 35.9863C11.8469 36.9751 14.386 37.5 17.1875 37.5C19.989 37.5 22.5281 36.9751 24.5117 35.9863C24.6826 35.9009 24.8352 35.7849 25 35.6934V37.5C25 37.9517 24.5056 38.6963 23.0957 39.4043C21.6858 40.1123 19.5679 40.625 17.1875 40.625C14.8071 40.625 12.6892 40.1123 11.2793 39.4043C9.86938 38.6963 9.375 37.9517 9.375 37.5V35.6934Z" />
</svg>
