<svg width="24" height="24" viewBox="0 0 24 24"  xmlns="http://www.w3.org/2000/svg">
<path fill-rule="evenodd" clip-rule="evenodd" d="M19.4942 3.00014C19.4948 3.00032 19.4953 3.00061 19.4964 3.00167L20.9983 4.50361C20.9994 4.50468 20.9997 4.50517 20.9999 4.5058C21 4.50639 21 4.50701 20.9999 4.5076C20.9997 4.50819 20.9994 4.50869 20.9983 4.50976L13.5081 12L20.9983 19.4902C20.9994 19.4913 20.9997 19.4918 20.9999 19.4924C21 19.493 21 19.4936 20.9999 19.4942C20.9997 19.4948 20.9994 19.4953 20.9983 19.4964L19.4964 20.9983C19.4953 20.9994 19.4948 20.9997 19.4942 20.9999C19.4936 21 19.493 21 19.4924 20.9999C19.4918 20.9997 19.4913 20.9994 19.4902 20.9983L12 13.5081L4.50976 20.9983C4.50872 20.9994 4.50819 20.9997 4.5076 20.9999C4.507 21 4.50637 21 4.50577 20.9999C4.5052 20.9997 4.50468 20.9994 4.50361 20.9983L3.00167 19.4964C3.00061 19.4953 3.00032 19.4948 3.00014 19.4942C2.99996 19.4936 2.99996 19.493 3.00014 19.4924C3.00032 19.4918 3.00061 19.4913 3.00167 19.4902L10.4919 12L3.00167 4.50976C3.00061 4.50872 3.00032 4.50819 3.00014 4.5076C2.99995 4.507 2.99995 4.50637 3.00014 4.50577C3.00032 4.5052 3.00061 4.50468 3.00167 4.50361L4.50361 3.00167C4.50468 3.00061 4.50517 3.00032 4.5058 3.00014C4.50639 2.99996 4.50701 2.99996 4.5076 3.00014C4.50819 3.00032 4.50869 3.00061 4.50976 3.00167L12 10.4919L19.4902 3.00167C19.4913 3.00061 19.4918 3.00032 19.4924 3.00014C19.493 2.99995 19.4936 2.99995 19.4942 3.00014H19.4942Z"  stroke-width="0.5" stroke-linecap="round" stroke-linejoin="round"/>
</svg>
