  <svg
    width="40"
    height="40"
    viewBox="0 0 40 40"
    xmlns="http://www.w3.org/2000/svg"
  >
    <path
      d="M20.0002 3.33301C29.0489 3.33301 36.4134 10.5441 36.6604 19.5332L36.6668 19.9997V21.6663C36.6668 25.2879 34.1292 28.333 30.8335 28.333C28.8784 28.333 27.1901 27.2614 26.1401 25.6335C24.6178 27.2926 22.4305 28.333 20.0002 28.333C15.3978 28.333 11.6668 24.602 11.6668 19.9997C11.6668 15.3973 15.3978 11.6663 20.0002 11.6663C24.4814 11.6663 28.1365 15.2035 28.3258 19.6382L28.3335 19.9997V21.6663C28.3335 23.5677 29.5268 24.9997 30.8335 24.9997C32.0748 24.9997 33.2139 23.7073 33.3247 21.9479L33.3335 21.6663V19.9997C33.3335 12.6359 27.364 6.66634 20.0002 6.66634C12.6364 6.66634 6.66683 12.6359 6.66683 19.9997C6.66683 27.3635 12.6364 33.333 20.0002 33.333C21.9387 33.333 23.8156 32.9201 25.5377 32.1327C26.3748 31.75 27.3637 32.1183 27.7465 32.9554C28.1292 33.7925 27.7609 34.7814 26.9238 35.1642C24.7689 36.1495 22.4194 36.6663 20.0002 36.6663C10.7954 36.6663 3.3335 29.2044 3.3335 19.9997C3.3335 10.7949 10.7954 3.33301 20.0002 3.33301ZM20.0002 14.9997C17.2387 14.9997 15.0002 17.2383 15.0002 19.9997C15.0002 22.7611 17.2387 24.9997 20.0002 24.9997C22.7616 24.9997 25.0002 22.7611 25.0002 19.9997C25.0002 17.2383 22.7616 14.9997 20.0002 14.9997Z"
    />
  </svg>