<svg width="41" height="40" viewBox="0 0 41 40" xmlns="http://www.w3.org/2000/svg">
<path d="M37.3333 14.6876C37.3333 21.1424 32.1006 26.375 25.6458 26.375C24.9007 26.375 24.1722 26.3045 23.4659 26.1712L21.8713 27.9651C21.7218 28.1333 21.5383 28.268 21.333 28.3601C21.1277 28.4523 20.9052 28.5 20.6801 28.5H18.2083V31.1562C18.2083 32.0365 17.4947 32.75 16.6145 32.75H13.9583V35.4062C13.9583 36.2865 13.2447 37 12.3645 37H4.92703C4.04682 37 3.33328 36.2865 3.33328 35.4062V30.2226C3.33328 29.8 3.50122 29.3946 3.80005 29.0957L14.5447 18.351C14.1647 17.1986 13.9583 15.9672 13.9583 14.6875C13.9583 8.23268 19.1909 3.00007 25.6457 3C32.1196 2.99993 37.3333 8.21362 37.3333 14.6876ZM25.6458 11.5C25.6458 13.2604 27.0729 14.6875 28.8333 14.6875C30.5937 14.6875 32.0208 13.2604 32.0208 11.5C32.0208 9.73957 30.5937 8.3125 28.8333 8.3125C27.0729 8.3125 25.6458 9.73957 25.6458 11.5Z" />
</svg>
