  <svg
    width="16"
    height="16"
    viewBox="0 0 16 16"
    xmlns="http://www.w3.org/2000/svg"
  >
    <path
      fill-rule="evenodd"
      clip-rule="evenodd"
      d="M10.7669 4.32582L9.02544 0.502284C8.72045 -0.167428 7.83927 -0.167428 7.53459 0.502284L5.79316 4.32582C5.67206 4.59175 5.43792 4.77601 5.16706 4.81859L1.27292 5.43177C0.590781 5.53891 0.318633 6.44698 0.812042 6.96837L3.62982 9.94456C3.82564 10.1515 3.91518 10.4499 3.8688 10.742L3.20373 14.9445C3.08714 15.6806 3.8002 16.2421 4.4102 15.8945L7.89305 13.9105C8.13525 13.7726 8.42479 13.7726 8.66698 13.9105L12.1498 15.8945C12.7598 16.2417 13.4729 15.6806 13.3563 14.9445L12.6912 10.742C12.6449 10.4499 12.7344 10.1515 12.9302 9.94456L15.748 6.96837C16.2414 6.44733 15.9693 5.53926 15.2871 5.43177L11.393 4.81859C11.1221 4.77601 10.888 4.59175 10.7669 4.32582ZM10.1843 5.06067L8.79119 2.00184C8.5472 1.46607 7.84225 1.46607 7.59851 2.00184L6.20537 5.06067C6.10849 5.27341 5.92117 5.42083 5.70449 5.45489L2.58918 5.94543C2.04346 6.03114 1.82574 6.7576 2.22047 7.17471L4.4747 9.55566C4.63135 9.72122 4.70298 9.95993 4.66588 10.1936L4.13382 13.5556C4.04055 14.1445 4.611 14.5937 5.099 14.3156L7.88528 12.7284C8.07904 12.6181 8.31067 12.6181 8.50443 12.7284L11.2907 14.3156C11.7787 14.5934 12.3492 14.1445 12.2559 13.5556L11.7238 10.1936C11.6867 9.95993 11.7584 9.72122 11.915 9.55566L14.1692 7.17471C14.564 6.75788 14.3462 6.03142 13.8005 5.94543L10.6852 5.45489C10.4685 5.42083 10.2812 5.27341 10.1843 5.06067Z"
    />
  </svg>