  <svg
    width="40"
    height="40"
    viewBox="0 0 40 40"
    xmlns="http://www.w3.org/2000/svg"
  >
    <path
      fill-rule="evenodd"
      clip-rule="evenodd"
      d="M36.6668 19.9997C36.6668 29.2043 29.2048 36.6663 20.0002 36.6663C10.7954 36.6663 3.3335 29.2043 3.3335 19.9997C3.3335 10.7949 10.7954 3.33301 20.0002 3.33301C29.2048 3.33301 36.6668 10.7949 36.6668 19.9997ZM20.5973 15.6371C18.9763 16.3113 15.7364 17.7068 10.8778 19.8237C10.0888 20.1375 9.6755 20.4445 9.63788 20.7445C9.5743 21.2518 10.2095 21.4515 11.0744 21.7235C11.1921 21.7605 11.314 21.7988 11.4389 21.8393C12.2899 22.116 13.4346 22.4397 14.0297 22.4525C14.5695 22.4642 15.172 22.2417 15.8371 21.7848C20.3768 18.7205 22.7202 17.1717 22.8672 17.1382C22.971 17.1147 23.1148 17.085 23.2123 17.1717C23.3098 17.2583 23.3002 17.4223 23.2898 17.4663C23.227 17.7347 20.7337 20.0527 19.4433 21.2522C19.0412 21.6262 18.7558 21.8913 18.6975 21.952C18.5668 22.0877 18.4337 22.216 18.3057 22.3393C17.5152 23.1015 16.9222 23.673 18.3385 24.6063C19.0192 25.0548 19.5637 25.4257 20.107 25.7957C20.7003 26.1998 21.2922 26.6028 22.058 27.1048C22.253 27.2327 22.4393 27.3655 22.6208 27.4948C23.3113 27.9872 23.9317 28.4295 24.6982 28.3588C25.1435 28.318 25.6035 27.8992 25.8372 26.6502C26.3893 23.6985 27.4747 17.303 27.7255 14.6677C27.7475 14.4368 27.7198 14.1413 27.6977 14.0116C27.6753 13.8819 27.629 13.697 27.4603 13.5602C27.2607 13.3982 26.9525 13.364 26.8145 13.3663C26.1877 13.3775 25.2258 13.7119 20.5973 15.6371Z"
    />
  </svg>