<svg width="50" height="50" viewBox="0 0 50 50" xmlns="http://www.w3.org/2000/svg">
<g clip-path="url(#clip0_1132_3897)">
<path d="M20.8334 16.6665V29.1665L30.625 35.2082L32.2917 32.7082L23.9584 27.7082V16.6665H20.8334Z" />
<path d="M37.3333 25.0002C37.6473 27.0709 37.5088 29.185 36.9274 31.1971C36.346 33.2091 35.3354 35.0713 33.9652 36.6553C32.595 38.2393 30.8978 39.5076 28.9905 40.3727C27.0832 41.2379 25.011 41.6794 22.9166 41.6668C14.7916 41.6668 8.33329 35.2085 8.33329 27.0835C8.33329 18.9585 14.7916 12.5002 22.9166 12.5002C24.375 12.5002 25.7708 12.7085 27.0833 13.1043V8.81266C25.75 8.50016 24.3541 8.3335 22.9166 8.3335C12.5 8.3335 4.16663 16.6668 4.16663 27.0835C4.16663 37.5002 12.5 45.8335 22.9166 45.8335C25.5576 45.8445 28.1709 45.2951 30.5839 44.2216C32.997 43.1481 35.1548 41.575 36.915 39.606C38.6753 37.6371 39.9978 35.3172 40.7953 32.7995C41.5928 30.2817 41.8472 27.6235 41.5416 25.0002H37.3333Z" />
<path d="M41.6667 10.4165V4.1665H37.5V10.4165H31.25V14.5832H37.5V20.8332H41.6667V14.5832H47.9167V10.4165H41.6667Z" />
</g>
<defs>
<clipPath id="clip0_1132_3897">
<rect width="50" height="50" />
</clipPath>
</defs>
</svg>
