<svg width="40" height="40" viewBox="0 0 40 40" xmlns="http://www.w3.org/2000/svg">
<path d="M36.2776 29.2744L28.5019 21.499C26.968 19.9651 24.6771 19.6663 22.8311 20.576L15.7526 13.4978V9.37438L7.25308 3L3.00332 7.24959L9.37797 15.7488H13.5016L20.5801 22.827C19.677 24.6729 19.9692 26.9637 21.5031 28.4975L29.2788 36.2729C30.2483 37.2424 31.8154 37.2424 32.7782 36.2729L36.2776 32.7737C37.2405 31.8042 37.2405 30.2372 36.2776 29.2744ZM25.029 17.9399C26.9082 17.9399 28.6745 18.6703 30.0026 19.9983L31.2908 21.2865C32.34 20.8283 33.336 20.1909 34.1992 19.3277C36.6628 16.8643 37.4994 13.3982 36.7159 10.2509C36.5698 9.65326 35.8195 9.44742 35.3812 9.88566L30.4409 14.8258L25.9321 14.0755L25.1818 9.56694L30.1221 4.62679C30.5604 4.18856 30.3479 3.43824 29.7436 3.28552C26.5961 2.50864 23.1299 3.34528 20.673 5.80207C18.7806 7.69446 17.8908 10.1911 17.9373 12.6811L23.3889 18.1325C23.9268 18.0063 24.4845 17.9399 25.029 17.9399ZM18.1298 23.3847L14.3648 19.6199L4.24505 29.7458C2.58498 31.4058 2.58498 34.095 4.24505 35.755C5.90511 37.415 8.59442 37.415 10.2545 35.755L18.4618 27.548C17.9572 26.2266 17.8044 24.7858 18.1298 23.3847ZM7.25308 34.3407C6.37657 34.3407 5.65942 33.6236 5.65942 32.7471C5.65942 31.864 6.36993 31.1535 7.25308 31.1535C8.13624 31.1535 8.84675 31.864 8.84675 32.7471C8.84675 33.6236 8.13624 34.3407 7.25308 34.3407Z" />
</svg>
