<svg width="24" height="23" viewBox="0 0 24 23" xmlns="http://www.w3.org/2000/svg">
<g clip-path="url(#clip0_1665_185)">
<path d="M20 5.74998H12L10 3.83331H4C2.89 3.83331 2.01 4.68623 2.01 5.74998L2 17.25C2 18.3137 2.89 19.1666 4 19.1666H20C21.11 19.1666 22 18.3137 22 17.25V7.66665C22 6.6029 21.11 5.74998 20 5.74998ZM20 17.25H4V5.74998H9.17L11.17 7.66665H20V17.25ZM12 13.4166H14V15.3333H16V13.4166H18V11.5H16V9.58331H14V11.5H12V13.4166Z" />
</g>
<defs>
<clipPath id="clip0_1665_185">
<rect width="24" height="23" />
</clipPath>
</defs>
</svg>
