<svg width="40" height="40" viewBox="0 0 40 40" xmlns="http://www.w3.org/2000/svg">
<path d="M13.5 22.2334L18.2166 17.5167L6.51662 5.83338C5.26804 7.08557 4.56689 8.78174 4.56689 10.5501C4.56689 12.3184 5.26804 14.0145 6.51662 15.2667L13.5 22.2334ZM24.8 19.2167C27.35 20.4001 30.9333 19.5667 33.5833 16.9167C36.7666 13.7334 37.3833 9.16672 34.9333 6.71672C32.5 4.28338 27.9333 4.88338 24.7333 8.06672C22.0833 10.7167 21.25 14.3 22.4333 16.85L6.16662 33.1167L8.51662 35.4667L20 24.0167L31.4666 35.4834L33.8166 33.1334L22.35 21.6667L24.8 19.2167Z" />
</svg>
