<svg width="40" height="40" viewBox="0 0 40 40"  xmlns="http://www.w3.org/2000/svg">
<path d="M6.25 7.5H3.75C3.05964 7.5 2.5 8.05964 2.5 8.75V35C2.5 35.6904 3.05964 36.25 3.75 36.25H6.25C6.94036 36.25 7.5 35.6904 7.5 35V8.75C7.5 8.05964 6.94036 7.5 6.25 7.5Z"  stroke-width="2" stroke-linejoin="round"/>
<path d="M8.75 17.5H18.75M8.75 31.25H18.75"  stroke-width="2" stroke-linecap="round" stroke-linejoin="round"/>
<path d="M17.5 12.5H10C9.30964 12.5 8.75 13.0596 8.75 13.75V35C8.75 35.6904 9.30964 36.25 10 36.25H17.5C18.1904 36.25 18.75 35.6904 18.75 35V13.75C18.75 13.0596 18.1904 12.5 17.5 12.5Z"  stroke-width="2" stroke-linejoin="round"/>
<path d="M26.25 3.75H21.25C20.5596 3.75 20 4.30964 20 5V35C20 35.6904 20.5596 36.25 21.25 36.25H26.25C26.9404 36.25 27.5 35.6904 27.5 35V5C27.5 4.30964 26.9404 3.75 26.25 3.75Z"  stroke-width="2" stroke-linejoin="round"/>
<path d="M33.0048 7.5086L29.8485 7.84063C28.9798 7.93203 28.3501 8.74453 28.4477 9.64532L31.1759 34.7695C31.2743 35.6703 32.0641 36.332 32.9329 36.2414L36.0891 35.9094C36.9579 35.818 37.5876 35.0055 37.4899 34.1047L34.7657 8.98438C34.6634 8.07969 33.8735 7.41719 33.0048 7.5086Z"  stroke-width="2" stroke-linejoin="round"/>
</svg>
