<svg width="40" height="40" viewBox="0 0 40 40"  xmlns="http://www.w3.org/2000/svg">
<path d="M20 20C22.6522 20 25.1957 18.9464 27.0711 17.0711C28.9464 15.1957 30 12.6522 30 10C30 7.34784 28.9464 4.8043 27.0711 2.92893C25.1957 1.05357 22.6522 0 20 0C17.3478 0 14.8043 1.05357 12.9289 2.92893C11.0536 4.8043 10 7.34784 10 10C10 12.6522 11.0536 15.1957 12.9289 17.0711C14.8043 18.9464 17.3478 20 20 20ZM16.4297 23.75C8.73438 23.75 2.5 29.9844 2.5 37.6797C2.5 38.9609 3.53906 40 4.82031 40H35.1797C36.4609 40 37.5 38.9609 37.5 37.6797C37.5 29.9844 31.2656 23.75 23.5703 23.75H16.4297Z" />
</svg>
